<svg width="23" height="21" viewBox="0 0 23 21" fill="none" xmlns="http://www.w3.org/2000/svg">
<path d="M11.5834 0.56958C8.86502 0.56958 6.6615 2.7731 6.6615 5.49146C6.6615 7.68911 9.8783 11.6946 11.1107 13.1485C11.3603 13.443 11.8068 13.443 12.056 13.1485C13.2885 11.6946 16.5053 7.68911 16.5053 5.49146C16.5053 2.7731 14.3017 0.56958 11.5834 0.56958V0.56958ZM11.5834 7.13208C10.6771 7.13208 9.94275 6.39771 9.94275 5.49146C9.94275 4.58521 10.6771 3.85083 11.5834 3.85083C12.4896 3.85083 13.224 4.58521 13.224 5.49146C13.224 6.39771 12.4896 7.13208 11.5834 7.13208ZM1.11931 9.00513C0.88735 9.0979 0.688503 9.25805 0.548417 9.46491C0.408331 9.67176 0.33343 9.91585 0.333374 10.1657L0.333374 19.9438C0.333374 20.386 0.779858 20.6883 1.19041 20.5243L6.58337 18.0696V8.96489C6.23806 8.34067 5.95564 7.73286 5.7533 7.15161L1.11931 9.00513ZM11.5834 14.6192C11.0338 14.6192 10.5138 14.3778 10.1572 13.9567C9.38923 13.0504 8.57244 12.0184 7.83337 10.9598V18.0692L15.3334 20.5692V10.9602C14.5943 12.0184 13.7779 13.0508 13.0095 13.9571C12.6529 14.3778 12.133 14.6192 11.5834 14.6192V14.6192ZM21.9763 6.86489L16.5834 9.31958V20.5696L22.0474 18.384C22.2794 18.2913 22.4783 18.1312 22.6184 17.9243C22.7585 17.7174 22.8334 17.4733 22.8334 17.2235V7.44536C22.8334 7.00317 22.3869 6.70083 21.9763 6.86489V6.86489Z" fill="black"/>
</svg>
