<svg width="21" height="16" viewBox="0 0 21 16" fill="none" xmlns="http://www.w3.org/2000/svg">
<path d="M18.4584 0.56958H2.20837C1.17283 0.56958 0.333374 1.40903 0.333374 2.44458V13.6946C0.333374 14.7301 1.17283 15.5696 2.20837 15.5696H18.4584C19.4939 15.5696 20.3334 14.7301 20.3334 13.6946V2.44458C20.3334 1.40903 19.4939 0.56958 18.4584 0.56958ZM18.4584 2.44458V4.03853C17.5825 4.75177 16.1862 5.86083 13.2011 8.19829C12.5432 8.71575 11.2401 9.95892 10.3334 9.94442C9.42681 9.95907 8.12326 8.71556 7.46568 8.19829C4.48103 5.86118 3.08435 4.75188 2.20837 4.03853V2.44458H18.4584ZM2.20837 13.6946V6.4445C3.10345 7.15743 4.37279 8.15786 6.30751 9.67286C7.1613 10.3449 8.6565 11.8286 10.3334 11.8195C12.002 11.8286 13.4783 10.3665 14.3589 9.67317C16.2936 8.15821 17.5633 7.15751 18.4584 6.44454V13.6946H2.20837Z" fill="black"/>
</svg>
