<svg width="21" height="21" viewBox="0 0 21 21" fill="none" xmlns="http://www.w3.org/2000/svg">
<path d="M19.0834 6.81958V3.58716C19.0833 3.42297 19.051 3.26039 18.9881 3.10872C18.9252 2.95704 18.8331 2.81924 18.717 2.70317L16.9494 0.935596C16.715 0.701283 16.3972 0.56963 16.0658 0.56958H6.58337C6.25185 0.56958 5.93391 0.701276 5.69949 0.935697C5.46507 1.17012 5.33337 1.48806 5.33337 1.81958V19.3196C5.33337 19.6511 5.46507 19.969 5.69949 20.2035C5.93391 20.4379 6.25185 20.5696 6.58337 20.5696H19.0834C19.4149 20.5696 19.7328 20.4379 19.9673 20.2035C20.2017 19.969 20.3334 19.6511 20.3334 19.3196V8.06958C20.3334 7.73806 20.2017 7.42012 19.9673 7.1857C19.7328 6.95128 19.4149 6.81958 19.0834 6.81958ZM11.5834 17.4446C11.5834 17.6103 11.5175 17.7693 11.4003 17.8865C11.2831 18.0037 11.1241 18.0696 10.9584 18.0696H9.70837C9.54261 18.0696 9.38364 18.0037 9.26643 17.8865C9.14922 17.7693 9.08337 17.6103 9.08337 17.4446V16.1946C9.08337 16.0288 9.14922 15.8698 9.26643 15.7526C9.38364 15.6354 9.54261 15.5696 9.70837 15.5696H10.9584C11.1241 15.5696 11.2831 15.6354 11.4003 15.7526C11.5175 15.8698 11.5834 16.0288 11.5834 16.1946V17.4446ZM11.5834 12.4446C11.5834 12.6103 11.5175 12.7693 11.4003 12.8865C11.2831 13.0037 11.1241 13.0696 10.9584 13.0696H9.70837C9.54261 13.0696 9.38364 13.0037 9.26643 12.8865C9.14922 12.7693 9.08337 12.6103 9.08337 12.4446V11.1946C9.08337 11.0288 9.14922 10.8698 9.26643 10.7526C9.38364 10.6354 9.54261 10.5696 9.70837 10.5696H10.9584C11.1241 10.5696 11.2831 10.6354 11.4003 10.7526C11.5175 10.8698 11.5834 11.0288 11.5834 11.1946V12.4446ZM16.5834 17.4446C16.5834 17.6103 16.5175 17.7693 16.4003 17.8865C16.2831 18.0037 16.1241 18.0696 15.9584 18.0696H14.7084C14.5426 18.0696 14.3836 18.0037 14.2664 17.8865C14.1492 17.7693 14.0834 17.6103 14.0834 17.4446V16.1946C14.0834 16.0288 14.1492 15.8698 14.2664 15.7526C14.3836 15.6354 14.5426 15.5696 14.7084 15.5696H15.9584C16.1241 15.5696 16.2831 15.6354 16.4003 15.7526C16.5175 15.8698 16.5834 16.0288 16.5834 16.1946V17.4446ZM16.5834 12.4446C16.5834 12.6103 16.5175 12.7693 16.4003 12.8865C16.2831 13.0037 16.1241 13.0696 15.9584 13.0696H14.7084C14.5426 13.0696 14.3836 13.0037 14.2664 12.8865C14.1492 12.7693 14.0834 12.6103 14.0834 12.4446V11.1946C14.0834 11.0288 14.1492 10.8698 14.2664 10.7526C14.3836 10.6354 14.5426 10.5696 14.7084 10.5696H15.9584C16.1241 10.5696 16.2831 10.6354 16.4003 10.7526C16.5175 10.8698 16.5834 11.0288 16.5834 11.1946V12.4446ZM16.5834 8.06958H7.83337V3.06958H14.0834V4.94458C14.0834 5.11034 14.1492 5.26931 14.2664 5.38652C14.3836 5.50373 14.5426 5.56958 14.7084 5.56958H16.5834V8.06958ZM2.83337 5.56958H1.58337C1.25185 5.56958 0.933911 5.70128 0.699491 5.9357C0.46507 6.17012 0.333374 6.48806 0.333374 6.81958L0.333374 19.3196C0.333374 19.6511 0.46507 19.969 0.699491 20.2035C0.933911 20.4379 1.25185 20.5696 1.58337 20.5696H2.83337C3.16489 20.5696 3.48284 20.4379 3.71726 20.2035C3.95168 19.969 4.08337 19.6511 4.08337 19.3196V6.81958C4.08337 6.48806 3.95168 6.17012 3.71726 5.9357C3.48284 5.70128 3.16489 5.56958 2.83337 5.56958V5.56958Z" fill="black"/>
</svg>
