<svg width="21" height="21" viewBox="0 0 21 21" fill="none" xmlns="http://www.w3.org/2000/svg">
<path d="M19.763 14.7023L15.3879 12.8273C15.201 12.7476 14.9933 12.7308 14.7961 12.7794C14.5988 12.828 14.4227 12.9394 14.2942 13.0968L12.3566 15.464C9.31585 14.0303 6.86872 11.5832 5.43503 8.54241L7.80225 6.60488C7.95994 6.47662 8.07155 6.30049 8.12019 6.10313C8.16882 5.90577 8.15183 5.69795 8.07179 5.51111L6.19676 1.13603C6.10891 0.934626 5.95354 0.770185 5.75743 0.671063C5.56133 0.571942 5.33679 0.544353 5.12252 0.593054L1.05995 1.53057C0.853371 1.57827 0.669062 1.69459 0.537102 1.86053C0.405143 2.02647 0.333326 2.23224 0.333374 2.44426C0.333374 12.464 8.45461 20.5696 18.4587 20.5696C18.6708 20.5697 18.8766 20.4979 19.0427 20.366C19.2087 20.234 19.325 20.0496 19.3728 19.843L20.3103 15.7804C20.3587 15.5651 20.3305 15.3397 20.2306 15.1429C20.1307 14.9461 19.9654 14.7903 19.763 14.7023V14.7023Z" fill="black"/>
</svg>
