<svg width="22" height="19" viewBox="0 0 22 19" fill="none" xmlns="http://www.w3.org/2000/svg">
<g clip-path="url(#clip0_401_1664)">
<path d="M21.5004 3.36663C20.7514 3.69861 19.9569 3.91636 19.1434 4.01263C20.0005 3.50025 20.6418 2.69333 20.9474 1.74263C20.1418 2.22069 19.2605 2.55754 18.3414 2.73863C17.9576 2.3289 17.4937 2.00242 16.9785 1.77948C16.4633 1.55654 15.9078 1.44188 15.3464 1.44263C12.6974 1.44263 10.7514 3.91463 11.3494 6.48063C9.71795 6.399 8.12192 5.97513 6.66495 5.23657C5.20797 4.498 3.92263 3.46125 2.89239 2.19363C2.36813 3.0971 2.20765 4.16633 2.44356 5.1839C2.67947 6.20148 3.29407 7.09101 4.16239 7.67163C3.51075 7.65171 2.87334 7.47616 2.30339 7.15963C2.25839 9.06063 3.62039 10.8396 5.59339 11.2346C4.9891 11.3987 4.35533 11.4227 3.74039 11.3046C4.00229 12.1203 4.51274 12.8336 5.20024 13.3446C5.88775 13.8557 6.71789 14.1389 7.57439 14.1546C5.85456 15.5037 3.66964 16.1151 1.49939 15.8546C3.37567 17.06 5.55928 17.6998 7.78939 17.6976C15.4074 17.6976 19.7114 11.2636 19.4514 5.49263C20.2547 4.91175 20.9481 4.19253 21.4994 3.36863L21.5004 3.36663Z" fill="black"/>
</g>
<defs>
<clipPath id="clip0_401_1664">
<rect width="21" height="18" fill="white" transform="translate(0.833374 0.56958)"/>
</clipPath>
</defs>
</svg>
