<svg width="22" height="21" viewBox="0 0 22 21" fill="none" xmlns="http://www.w3.org/2000/svg">
<g clip-path="url(#clip0_401_1666)">
<path d="M11.1664 2.37158C13.8364 2.37158 14.1534 2.38158 15.2084 2.43058C17.9184 2.55358 19.1844 3.83958 19.3084 6.52958C19.3564 7.58358 19.3654 7.89958 19.3654 10.5696C19.3654 13.2416 19.3554 13.5576 19.3074 14.6116C19.1834 17.2986 17.9214 18.5866 15.2084 18.7106C14.1534 18.7586 13.8384 18.7686 11.1664 18.7686C8.49636 18.7686 8.18036 18.7586 7.12636 18.7106C4.40936 18.5866 3.15036 17.2946 3.02636 14.6106C2.97836 13.5566 2.96836 13.2406 2.96836 10.5696C2.96836 7.89958 2.97836 7.58358 3.02636 6.52958C3.15036 3.83958 4.41336 2.55258 7.12636 2.42958C8.18036 2.38158 8.49636 2.37158 11.1664 2.37158V2.37158ZM11.1664 0.56958C8.45136 0.56958 8.11136 0.58158 7.04436 0.62958C3.41236 0.79658 1.39336 2.81158 1.22736 6.44658C1.17836 7.51358 1.16736 7.85358 1.16736 10.5696C1.16736 13.2856 1.17836 13.6266 1.22736 14.6926C1.39336 18.3246 3.40836 20.3426 7.04336 20.5096C8.11136 20.5576 8.45136 20.5696 11.1664 20.5696C13.8824 20.5696 14.2234 20.5576 15.2904 20.5096C18.9184 20.3426 20.9414 18.3276 21.1064 14.6926C21.1554 13.6266 21.1664 13.2856 21.1664 10.5696C21.1664 7.85358 21.1554 7.51358 21.1064 6.44758C20.9434 2.81858 18.9264 0.79758 15.2914 0.62958C14.2234 0.57958 13.8824 0.56958 11.1664 0.56958ZM11.1664 5.43458C9.80447 5.43458 8.49836 5.97559 7.53537 6.93859C6.57237 7.90159 6.03136 9.20769 6.03136 10.5696C6.03136 11.9315 6.57237 13.2376 7.53537 14.2006C8.49836 15.1636 9.80447 15.7046 11.1664 15.7046C12.5282 15.7046 13.8344 15.1636 14.7974 14.2006C15.7604 13.2376 16.3014 11.9315 16.3014 10.5696C16.3014 9.20769 15.7604 7.90159 14.7974 6.93859C13.8344 5.97559 12.5282 5.43458 11.1664 5.43458V5.43458ZM11.1664 13.9026C10.2824 13.9026 9.43463 13.5514 8.80957 12.9264C8.18451 12.3013 7.83336 11.4535 7.83336 10.5696C7.83336 9.68561 8.18451 8.83785 8.80957 8.21279C9.43463 7.58773 10.2824 7.23658 11.1664 7.23658C12.0503 7.23658 12.8981 7.58773 13.5231 8.21279C14.1482 8.83785 14.4994 9.68561 14.4994 10.5696C14.4994 11.4535 14.1482 12.3013 13.5231 12.9264C12.8981 13.5514 12.0503 13.9026 11.1664 13.9026V13.9026ZM16.5054 4.03258C16.3478 4.03251 16.1917 4.06349 16.0461 4.12373C15.9005 4.18398 15.7682 4.27231 15.6567 4.3837C15.5452 4.49508 15.4568 4.62733 15.3964 4.7729C15.336 4.91846 15.3049 5.07449 15.3049 5.23208C15.3048 5.38967 15.3358 5.54572 15.396 5.69134C15.4563 5.83695 15.5446 5.96928 15.656 6.08075C15.7674 6.19223 15.8996 6.28068 16.0452 6.34104C16.1907 6.40141 16.3468 6.43251 16.5044 6.43258C16.8226 6.43258 17.1278 6.30615 17.3529 6.08111C17.5779 5.85606 17.7044 5.55084 17.7044 5.23258C17.7044 4.91432 17.5779 4.6091 17.3529 4.38405C17.1278 4.15901 16.8226 4.03258 16.5044 4.03258H16.5054Z" fill="black"/>
</g>
<defs>
<clipPath id="clip0_401_1666">
<rect width="21" height="20" fill="white" transform="translate(0.833374 0.56958)"/>
</clipPath>
</defs>
</svg>
