<svg width="21" height="21" viewBox="0 0 21 21" fill="none" xmlns="http://www.w3.org/2000/svg">
<g clip-path="url(#clip0_401_1668)">
<path d="M19.7294 0.56958H1.93737C1.32737 0.56958 0.833374 1.06358 0.833374 1.67358V19.4666C0.833374 20.0756 1.32737 20.5696 1.93737 20.5696H11.5174V12.8246H8.90937V9.80658H11.5154V7.57958C11.5154 4.99658 13.0934 3.58958 15.3984 3.58958C16.5024 3.58958 17.4504 3.67158 17.7274 3.70858V6.40858H16.1294C14.8754 6.40858 14.6334 7.00558 14.6334 7.87858V9.80658H17.6224L17.2324 12.8246H14.6324V20.5696H19.7304C20.3384 20.5696 20.8324 20.0756 20.8324 19.4656V1.67358C20.8334 1.06358 20.3394 0.56958 19.7294 0.56958Z" fill="black"/>
</g>
<defs>
<clipPath id="clip0_401_1668">
<rect width="20" height="20" fill="white" transform="translate(0.833374 0.56958)"/>
</clipPath>
</defs>
</svg>
