<svg width="22" height="21" viewBox="0 0 22 21" fill="none" xmlns="http://www.w3.org/2000/svg">
<g clip-path="url(#clip0_401_1662)">
<path d="M11.1664 0.56958C5.64438 0.56958 1.16638 5.04758 1.16638 10.5696C1.16638 16.0926 5.64438 20.5696 11.1664 20.5696C16.6894 20.5696 21.1664 16.0926 21.1664 10.5696C21.1664 5.04758 16.6894 0.56958 11.1664 0.56958V0.56958ZM14.8674 14.6466C13.1154 14.7666 9.21438 14.7666 7.46538 14.6466C5.56838 14.5166 5.34738 13.5876 5.33338 10.5696C5.34738 7.54558 5.57038 6.62258 7.46538 6.49258C9.21438 6.37258 13.1164 6.37258 14.8674 6.49258C16.7654 6.62258 16.9854 7.55158 17.0004 10.5696C16.9854 13.5936 16.7624 14.5166 14.8674 14.6466V14.6466ZM9.50038 8.61758L13.5974 10.5666L9.50038 12.5216V8.61758V8.61758Z" fill="black"/>
</g>
<defs>
<clipPath id="clip0_401_1662">
<rect width="21" height="20" fill="white" transform="translate(0.833374 0.56958)"/>
</clipPath>
</defs>
</svg>
