<svg width="50" height="51" viewBox="0 0 50 51" fill="none" xmlns="http://www.w3.org/2000/svg">
<path d="M45.8334 36.4029C45.8334 38.2779 45.3125 40.0487 44.375 41.5487C43.4943 43.0289 42.2438 44.2547 40.7463 45.1057C39.2488 45.9568 37.5558 46.4038 35.8334 46.4029C32.1875 46.4029 29 44.4445 27.2917 41.5487C26.375 40.0487 25.8334 38.2779 25.8334 36.4029C25.8868 33.7861 26.9638 31.2944 28.8334 29.4627C30.7029 27.6309 33.216 26.6049 35.8334 26.6049C38.4507 26.6049 40.9638 27.6309 42.8334 29.4627C44.7029 31.2944 45.78 33.7861 45.8334 36.4029V36.4029Z" stroke="black" stroke-width="3" stroke-miterlimit="10" stroke-linecap="round" stroke-linejoin="round"/>
<path d="M31.9375 36.4029L34.3958 38.8612L39.7292 33.9445" stroke="black" stroke-width="3" stroke-linecap="round" stroke-linejoin="round"/>
<path d="M45.8333 18.6737C45.8333 22.7779 44.7708 26.4029 43.1041 29.5487C42.1708 28.5562 41.0444 27.7651 39.794 27.2241C38.5436 26.6831 37.1957 26.4036 35.8333 26.4029C30.3125 26.4029 25.8333 30.882 25.8333 36.4029C25.8333 38.9654 26.8125 41.2987 28.3958 43.0695C27.625 43.4237 26.9166 43.7154 26.2916 43.9237C25.5833 44.1737 24.4166 44.1737 23.7083 43.9237C17.6666 41.8612 4.16663 33.257 4.16663 18.6737C4.16663 12.2362 9.35413 7.02788 15.75 7.02788C19.5208 7.02788 22.8958 8.86121 25 11.6737C26.0747 10.2337 27.4703 9.06411 29.0759 8.25766C30.6816 7.45121 32.4531 7.03014 34.25 7.02788C40.6458 7.02788 45.8333 12.2362 45.8333 18.6737Z" stroke="black" stroke-width="3" stroke-linecap="round" stroke-linejoin="round"/>
</svg>
