<svg width="22" height="21" viewBox="0 0 22 21" fill="none" xmlns="http://www.w3.org/2000/svg">
<g clip-path="url(#clip0_268_41)">
<path d="M10.405 1.87158C13.075 1.87158 13.392 1.88158 14.447 1.93058C17.157 2.05358 18.423 3.33958 18.547 6.02958C18.595 7.08358 18.604 7.39958 18.604 10.0696C18.604 12.7416 18.594 13.0576 18.546 14.1116C18.422 16.7986 17.16 18.0866 14.447 18.2106C13.392 18.2586 13.077 18.2686 10.405 18.2686C7.73501 18.2686 7.41901 18.2586 6.36501 18.2106C3.64801 18.0866 2.38901 16.7946 2.26501 14.1106C2.21701 13.0566 2.20701 12.7406 2.20701 10.0696C2.20701 7.39958 2.21701 7.08358 2.26501 6.02958C2.38901 3.33958 3.65201 2.05258 6.36501 1.92958C7.41901 1.88158 7.73501 1.87158 10.405 1.87158ZM10.405 0.0695801C7.69001 0.0695801 7.35001 0.0815801 6.28301 0.12958C2.65101 0.29658 0.632006 2.31158 0.466006 5.94658C0.417006 7.01358 0.406006 7.35358 0.406006 10.0696C0.406006 12.7856 0.417006 13.1266 0.466006 14.1926C0.632006 17.8246 2.64701 19.8426 6.28201 20.0096C7.35001 20.0576 7.69001 20.0696 10.405 20.0696C13.121 20.0696 13.462 20.0576 14.529 20.0096C18.157 19.8426 20.18 17.8276 20.345 14.1926C20.394 13.1266 20.405 12.7856 20.405 10.0696C20.405 7.35358 20.394 7.01358 20.345 5.94758C20.182 2.31858 18.165 0.29758 14.53 0.12958C13.462 0.0795801 13.121 0.0695801 10.405 0.0695801ZM10.405 4.93458C9.04312 4.93458 7.73701 5.47559 6.77401 6.43859C5.81101 7.40159 5.27001 8.70769 5.27001 10.0696C5.27001 11.4315 5.81101 12.7376 6.77401 13.7006C7.73701 14.6636 9.04312 15.2046 10.405 15.2046C11.7669 15.2046 13.073 14.6636 14.036 13.7006C14.999 12.7376 15.54 11.4315 15.54 10.0696C15.54 8.70769 14.999 7.40159 14.036 6.43859C13.073 5.47559 11.7669 4.93458 10.405 4.93458ZM10.405 13.4026C9.52104 13.4026 8.67328 13.0514 8.04822 12.4264C7.42316 11.8013 7.07201 10.9535 7.07201 10.0696C7.07201 9.18561 7.42316 8.33785 8.04822 7.71279C8.67328 7.08773 9.52104 6.73658 10.405 6.73658C11.289 6.73658 12.1367 7.08773 12.7618 7.71279C13.3869 8.33785 13.738 9.18561 13.738 10.0696C13.738 10.9535 13.3869 11.8013 12.7618 12.4264C12.1367 13.0514 11.289 13.4026 10.405 13.4026ZM15.744 3.53258C15.5864 3.53251 15.4304 3.56349 15.2847 3.62373C15.1391 3.68398 15.0068 3.77231 14.8953 3.8837C14.7839 3.99508 14.6954 4.12733 14.635 4.2729C14.5747 4.41846 14.5436 4.57449 14.5435 4.73208C14.5434 4.88967 14.5744 5.04572 14.6347 5.19134C14.6949 5.33695 14.7832 5.46928 14.8946 5.58075C15.006 5.69223 15.1383 5.78068 15.2838 5.84104C15.4294 5.90141 15.5854 5.93251 15.743 5.93258C16.0613 5.93258 16.3665 5.80615 16.5915 5.58111C16.8166 5.35606 16.943 5.05084 16.943 4.73258C16.943 4.41432 16.8166 4.1091 16.5915 3.88405C16.3665 3.65901 16.0613 3.53258 15.743 3.53258H15.744Z" fill="white"/>
</g>
<defs>
<clipPath id="clip0_268_41">
<rect width="21" height="20" fill="white" transform="translate(0.0720215 0.0695801)"/>
</clipPath>
</defs>
</svg>
