<svg width="21" height="21" viewBox="0 0 21 21" fill="none" xmlns="http://www.w3.org/2000/svg">
<g clip-path="url(#clip0_268_43)">
<path d="M18.968 0.0695801H1.17602C0.566021 0.0695801 0.0720215 0.56358 0.0720215 1.17358V18.9666C0.0720215 19.5756 0.566021 20.0696 1.17602 20.0696H10.756V12.3246H8.14802V9.30658H10.754V7.07958C10.754 4.49658 12.332 3.08958 14.637 3.08958C15.741 3.08958 16.689 3.17158 16.966 3.20858V5.90858H15.368C14.114 5.90858 13.872 6.50558 13.872 7.37858V9.30658H16.861L16.471 12.3246H13.871V20.0696H18.969C19.577 20.0696 20.071 19.5756 20.071 18.9656V1.17358C20.072 0.56358 19.578 0.0695801 18.968 0.0695801Z" fill="white"/>
</g>
<defs>
<clipPath id="clip0_268_43">
<rect width="20" height="20" fill="white" transform="translate(0.0720215 0.0695801)"/>
</clipPath>
</defs>
</svg>
