<svg width="22" height="19" viewBox="0 0 22 19" fill="none" xmlns="http://www.w3.org/2000/svg">
<g clip-path="url(#clip0_268_39)">
<path d="M20.739 2.86663C19.9901 3.19861 19.1956 3.41636 18.382 3.51263C19.2392 3.00025 19.8804 2.19333 20.186 1.24263C19.3805 1.72069 18.4991 2.05754 17.58 2.23863C17.1963 1.8289 16.7324 1.50242 16.2172 1.27948C15.702 1.05654 15.1464 0.94188 14.585 0.942631C11.936 0.942631 9.99004 3.41463 10.588 5.98063C8.9566 5.899 7.36057 5.47513 5.9036 4.73657C4.44662 3.998 3.16128 2.96125 2.13104 1.69363C1.60678 2.5971 1.44629 3.66633 1.6822 4.6839C1.91811 5.70148 2.53271 6.59101 3.40104 7.17163C2.7494 7.15171 2.11198 6.97616 1.54204 6.65963C1.49704 8.56063 2.85904 10.3396 4.83204 10.7346C4.22775 10.8987 3.59398 10.9227 2.97904 10.8046C3.24094 11.6203 3.75138 12.3336 4.43889 12.8446C5.1264 13.3557 5.95653 13.6389 6.81304 13.6546C5.0932 15.0037 2.90828 15.6151 0.738037 15.3546C2.61432 16.56 4.79792 17.1998 7.02804 17.1976C14.646 17.1976 18.95 10.7636 18.69 4.99263C19.4933 4.41175 20.1868 3.69253 20.738 2.86863L20.739 2.86663Z" fill="white"/>
</g>
<defs>
<clipPath id="clip0_268_39">
<rect width="21" height="18" fill="white" transform="translate(0.0720215 0.0695801)"/>
</clipPath>
</defs>
</svg>
