<svg width="22" height="21" viewBox="0 0 22 21" fill="none" xmlns="http://www.w3.org/2000/svg">
<g clip-path="url(#clip0_268_37)">
<path d="M10.405 0.0695801C4.88303 0.0695801 0.405029 4.54758 0.405029 10.0696C0.405029 15.5926 4.88303 20.0696 10.405 20.0696C15.928 20.0696 20.405 15.5926 20.405 10.0696C20.405 4.54758 15.928 0.0695801 10.405 0.0695801ZM14.106 14.1466C12.354 14.2666 8.45303 14.2666 6.70403 14.1466C4.80703 14.0166 4.58603 13.0876 4.57203 10.0696C4.58603 7.04558 4.80903 6.12258 6.70403 5.99258C8.45303 5.87258 12.355 5.87258 14.106 5.99258C16.004 6.12258 16.224 7.05158 16.239 10.0696C16.224 13.0936 16.001 14.0166 14.106 14.1466ZM8.73903 8.11758L12.836 10.0666L8.73903 12.0216V8.11758Z" fill="white"/>
</g>
<defs>
<clipPath id="clip0_268_37">
<rect width="21" height="20" fill="white" transform="translate(0.0720215 0.0695801)"/>
</clipPath>
</defs>
</svg>
