<svg width="51" height="51" viewBox="0 0 51 51" fill="none" xmlns="http://www.w3.org/2000/svg">
<path d="M40.0834 33.9029V14.1112C40.0834 11.8195 38.2084 9.94455 35.9167 9.94455H24.4584" stroke="black" stroke-width="1.5" stroke-linecap="round" stroke-linejoin="round"/>
<path d="M29.6666 4.73622L23.4166 9.94455L29.6666 15.1529M10.9166 17.2362V37.0279C10.9166 39.3196 12.7916 41.1946 15.0833 41.1946H26.5416M40.0833 46.4029C41.7409 46.4029 43.3306 45.7444 44.5027 44.5723C45.6748 43.4002 46.3333 41.8105 46.3333 40.1529C46.3333 38.4953 45.6748 36.9056 44.5027 35.7335C43.3306 34.5614 41.7409 33.9029 40.0833 33.9029C38.4257 33.9029 36.836 34.5614 35.6639 35.7335C34.4918 36.9056 33.8333 38.4953 33.8333 40.1529C33.8333 41.8105 34.4918 43.4002 35.6639 44.5723C36.836 45.7444 38.4257 46.4029 40.0833 46.4029Z" stroke="black" stroke-width="1.5" stroke-linecap="round" stroke-linejoin="round"/>
<path d="M21.3333 46.4029L27.5833 41.1946L21.3333 35.9862M10.9166 17.2362C12.5742 17.2362 14.1639 16.5777 15.336 15.4056C16.5081 14.2335 17.1666 12.6438 17.1666 10.9862C17.1666 9.32862 16.5081 7.73891 15.336 6.5668C14.1639 5.3947 12.5742 4.73622 10.9166 4.73622C9.25902 4.73622 7.66931 5.3947 6.49721 6.5668C5.32511 7.73891 4.66663 9.32862 4.66663 10.9862C4.66663 12.6438 5.32511 14.2335 6.49721 15.4056C7.66931 16.5777 9.25902 17.2362 10.9166 17.2362V17.2362Z" stroke="black" stroke-width="1.5" stroke-linecap="round" stroke-linejoin="round"/>
</svg>
