<svg width="50" height="60" viewBox="0 0 50 60" fill="none" xmlns="http://www.w3.org/2000/svg">
<path d="M25.0119 0.00110635C28.977 -0.0472936 32.808 1.49406 35.6376 4.28636C38.4671 7.07866 40.0587 10.8892 40.0587 14.8636C40.0587 18.838 38.469 22.6485 35.6376 25.4408C32.8062 28.2332 28.977 29.7745 25.0119 29.7261C16.877 29.62 10.3337 22.9967 10.3337 14.8636C10.3337 6.73056 16.8789 0.107214 25.0119 0.00110635ZM49.1449 32.336H49.0667L37.8304 26.77C37.0449 26.3828 36.0955 26.6732 35.658 27.429C32.7689 32.2671 29.1613 36.6305 24.9635 40.3815C20.7937 36.6398 17.2065 32.2857 14.3267 27.4774C13.8911 26.7123 12.9399 26.42 12.1543 26.8091L0.897584 32.336H0.8194C0.0431394 32.7921 -0.228645 33.7805 0.208816 34.5754C3.3213 39.9459 7.11139 44.9013 11.5046 49.2927L11.4953 49.302C11.553 49.3597 11.6219 49.4193 11.6796 49.477C12.5136 50.311 13.3568 51.1245 14.2299 51.91C14.4328 52.0943 14.6376 52.2693 14.8405 52.4536C15.6261 53.1424 16.4116 53.8311 17.2251 54.4901C17.5844 54.7805 17.9623 55.0523 18.3216 55.3334C19.0103 55.8658 19.6879 56.4093 20.3972 56.9231C21.4936 57.7087 22.6087 58.4738 23.7423 59.1923C24.4981 59.6763 25.468 59.6968 26.2443 59.2407C27.4468 58.4645 28.6289 57.651 29.783 56.8077C29.958 56.6811 30.1125 56.5452 30.2875 56.4298C31.1699 55.7708 32.0522 55.0914 32.9141 54.3933C33.4968 53.9186 34.059 53.4235 34.6212 52.9301C35.0475 52.5709 35.4644 52.2135 35.8814 51.8337C36.6093 51.1654 37.3167 50.4859 38.024 49.7879C38.1692 49.6334 38.3349 49.4975 38.4894 49.3411H38.4801C42.8827 44.9293 46.6914 39.9664 49.8038 34.5754C50.2301 33.7712 49.9397 32.7716 49.1449 32.336Z" fill="black"/>
</svg>
