<svg width="50" height="51" viewBox="0 0 50 51" fill="none" xmlns="http://www.w3.org/2000/svg">
<path d="M42.6777 7.89188C37.9893 3.20347 31.6304 0.56955 25 0.56955C18.3696 0.56955 12.0107 3.20347 7.32233 7.89188C2.63392 12.5803 0 18.9391 0 25.5695C0 32.2 2.63392 38.5588 7.32233 43.2472C12.0107 47.9356 18.3696 50.5695 25 50.5695C31.6304 50.5695 37.9893 47.9356 42.6777 43.2472C47.3661 38.5588 50 32.2 50 25.5695C50 18.9391 47.3661 12.5803 42.6777 7.89188ZM25 47.2187C13.0628 47.2187 3.35082 37.5069 3.35082 25.5695C3.35082 13.6322 13.0626 3.92037 25 3.92037C36.9374 3.92037 46.6492 13.6322 46.6492 25.5695C46.6492 37.5069 36.9374 47.2187 25 47.2187Z" fill="black"/>
<path d="M21.2324 30.8112L13.5452 23.1241L11.1759 25.4934L21.2324 35.55L38.7717 18.0108L36.4023 15.6415L21.2324 30.8112Z" fill="black"/>
</svg>
