<svg xmlns="http://www.w3.org/2000/svg" xmlns:xlink="http://www.w3.org/1999/xlink" width="412.393" height="45.45" viewBox="0 0 412.393 45.45"><defs><clipPath id="a"><rect width="412.393" height="45.45" transform="translate(0 0)" fill="none"/></clipPath></defs><g clip-path="url(#a)"><path d="M50.161,29.968c-5.123,0-7.481-2.934-7.481-6.043,0-4.022,3.889-7.1,8.082-7.1l16.947.022C63.784,7.148,50.378,0,34.439,0,15.419,0,0,10.174,0,22.726S15.419,45.45,34.439,45.45c15.18,0,28.058-6.484,32.642-15.482H50.161ZM31.052,36.8l-17.877-.028,3.731-13.114H31.652c5.123,0,7.482,2.934,7.482,6.044,0,4.023-3.89,7.1-8.082,7.1M35.892,19,18.24,18.97,21.971,5.854H36.492c5.123,0,7.481,2.934,7.481,6.042,0,4.023-3.89,7.1-8.081,7.1" fill="#b92152"/><path d="M100.459,25.268c-.24-2.119-2.482-3.984-4.12-4.7,1.008-.545,3.578-1.531,3.578-5.219,0-3.21-3.7-5.14-7.357-5.14H82.111V32.856H91.9c2.58,0,4.6-.275,6.2-1.474a6.358,6.358,0,0,0,2.355-6.114M91.617,30.51H84.934l.085-17.962h6.505c4.942.012,4.956,3.074,4.749,4.079a4.374,4.374,0,0,1-4.215,2.737H86.577V21.7H91.74c2.678,0,5.094,1.806,5.094,4.009a4.815,4.815,0,0,1-5.217,4.8" fill="#b92152"/><rect width="2.896" height="22.618" transform="translate(102.066 10.219)" fill="#b92152"/><rect width="2.823" height="22.618" transform="translate(253.037 10.219)" fill="#b92152"/><path d="M123.468,10.217H107.637v2.357h11.717A43.859,43.859,0,0,1,107.282,31.1l-.011,1.759h16.687V30.534l-11.388-.021c3.38-3.563,9.521-12.294,10.9-20.3" fill="#b92152"/><path d="M126.255,32.846H140.27V30.532H129.1V12.556H140.27V10.21H126.255Z" fill="#b92152"/><rect width="9.565" height="2.367" transform="translate(130.705 17.939)" fill="#b92152"/><path d="M210.421,32.857l14.016-.023V30.5H213.269V12.8h11.168V10.455l-14.016.025Z" fill="#b92152"/><rect width="9.565" height="2.367" transform="translate(214.871 17.939)" fill="#b92152"/><path d="M158.226,21.293a60.8,60.8,0,0,0-12.385-11.062h-3.453v22.63h2.907V13.824c4.166,2.794,9.626,8.295,12.931,12.345v6.692H161.1V10.216h-2.876Z" fill="#b92152"/><path d="M177.338,11.037a9.94,9.94,0,0,0-4.815,4.761c-1.835,3.67-1.811,8.912.49,12.249a11.607,11.607,0,0,0,5.67,4.466,16.615,16.615,0,0,0,8.174.4V30.741c-3.986.734-8.415-.2-10.566-3.332-2-3.184-2.172-8.477-.038-11.641,2.387-3.564,6.727-4.147,10.6-3.318V10.281a16.49,16.49,0,0,0-9.519.756" fill="#b92152"/><path d="M319.29,11.037a9.932,9.932,0,0,0-4.813,4.761c-1.835,3.67-1.812,8.912.488,12.249a11.616,11.616,0,0,0,5.672,4.466,16.6,16.6,0,0,0,8.172.4V30.741c-3.986.734-8.415-.2-10.564-3.332-2-3.184-2.174-8.477-.04-11.641,2.387-3.564,6.727-4.147,10.6-3.318V10.281a16.488,16.488,0,0,0-9.519.756" fill="#b92152"/><path d="M189.226,32.845l2.894-.029V10.209h-2.894Z" fill="#b92152"/><path d="M204.323,17.935H193.754v2.324h10.569V32.844h2.909V10.208h-2.909Z" fill="#b92152"/><path d="M238.462,22.479a45.717,45.717,0,0,0-8.552-12.195h-3.545V32.841h2.919V14.52c3.507,3.383,7.341,10.185,8.678,15.268h.959c1.279-4.958,5.9-13.458,8.354-15.625V32.841h2.889V10.284h-3.423c-3.848,3.6-6.455,8.44-8.279,12.195" fill="#b92152"/><path d="M296.689,10.219h-2.9V32.841h12.452V30.532h-9.556Z" fill="#b92152"/><path d="M371.354,10.219h-2.9V32.841H380.91V30.532h-9.556Z" fill="#b92152"/><path d="M340.62,9.9a11.67,11.67,0,1,0,11.668,11.669A11.669,11.669,0,0,0,340.62,9.9m0,21.092c-4.534,0-8.213-4.218-8.213-9.423s3.679-9.42,8.213-9.42,8.209,4.218,8.209,9.42-3.673,9.423-8.209,9.423" fill="#b92152"/><rect width="2.885" height="2.882" transform="translate(352.365 29.959)" fill="#b92152"/><rect width="2.884" height="2.882" transform="translate(409.51 29.959)" fill="#b92152"/><path d="M356.459,32.841h1.058l-1.072,2.042h1.324l1.574-2.042V29.959h-2.884Z" fill="#b92152"/><path d="M280.371,10.193a49.62,49.62,0,0,0-8.09,20.669c-3.732.445-7.56-.554-9.551-3.453-2-3.184-2.17-8.478-.037-11.64,2.388-3.566,6.728-4.148,10.6-3.319V10.281a16.494,16.494,0,0,0-9.519.756,9.944,9.944,0,0,0-4.811,4.761c-1.833,3.669-1.811,8.913.488,12.249a11.639,11.639,0,0,0,5.67,4.466,30.728,30.728,0,0,0,10.164.32,46.248,46.248,0,0,1,7.077-19.771,46.364,46.364,0,0,1,5.51,12.066h-8.692q-.348,1.2-.634,2.419h9.968a46.256,46.256,0,0,1,.926,5.314h3.245a49.526,49.526,0,0,0-8.331-22.668Z" fill="#b92152"/><path d="M404.982,11.638c-2.322-1.095-4.6-1.423-9.826-1.423H376.334v2.321h5.945v20.3H385.1v-20.3h6.771V32.862l4.55-.009c14.144,0,14.609-9.377,14.609-12.13a10.159,10.159,0,0,0-6.048-9.085m-1.127,17.151c-2.53,1.647-5.237,1.719-9.083,1.719V12.536c3.344,0,6.241.209,8.267,1.137a7.834,7.834,0,0,1,4.539,7.05c0,3.616-.791,6.215-3.723,8.066" fill="#b92152"/></g></svg>